<svg xmlns="http://www.w3.org/2000/svg" xmlns:xlink="http://www.w3.org/1999/xlink" width="252px" height="252px" viewBox="0 0 252 252" version="1.1">
    <title>MullvadVPN_logo_Landscape_RGB_Color_negative</title>
    <g id="Page-1" stroke="none" stroke-width="1" fill="none" fill-rule="evenodd">
        <g id="MullvadVPN_logo_Landscape_RGB_Color_negative">
            <g id="mole">
                <path d="M0,126 C0,195.6 56.5,252 126,252 C195.5,252 252,195.6 252,126 C252,56.4 195.6,0 126,0 C56.4,0 0,56.4 0,126 L0,126 L0,126 L0,126 Z" id="bg" fill="#192E45"/>
                <g id="body" transform="translate(16.537031, 66.800000)">
                    <path d="M7.36296948,29.8 L0.262969484,44.2 L9.86296948,30.8 C9.86296948,30.9 9.26296948,50.1 9.26296948,50.1 L11.9629695,35.6 C19.1629695,49.3 35.0629695,70.4 57.3629695,86.1 C59.0629695,87.3 61.2629695,89.4 61.9629695,90.2 C61.9629695,90.2 83.2629695,101 116.062969,76 C116.362969,75.8 116.762969,75.6 117.062969,75.4 L117.562969,75.7 L124.762969,80.5 C122.262969,79.8 117.462969,78.6 117.462969,78.6 C101.662969,96.8 75.9629695,99.8 62.1629695,90.6 C61.5629695,90.2 58.1629695,91.6 57.5629695,93.6 C57.1629695,94.7 57.5629695,95.9 58.0629695,96.8 C60.8629695,102 65.0629695,101.5 63.0629695,107.6 C61.6629695,110.9 59.6629695,114.1 57.4629695,117.1 C52.8629695,123.3 45.6629695,128.8 46.3629695,132.1 C78.9629695,172.3 152.462969,166.7 180.462969,130.8 C180.062969,125.6 171.862969,123.1 166.162969,110.4 C167.762969,110.9 170.162969,111.6 170.162969,111.5 C170.162969,111.4 163.362969,100.4 163.062969,99.3 L167.462969,99.6 C167.462969,99.6 161.662969,92.4 161.462969,91.7 L167.362969,90.9 C167.362969,90.9 159.962969,82.4 159.862969,81.7 L167.362969,82.9 L159.162969,73 L163.062969,73 L158.462969,66.3 L121.162969,51.6 C106.862969,42.7 94.1629695,31.8 84.5629695,23.4 L65.2629695,14 C46.7629695,12.6 29.4629695,13.1 18.8629695,15.2 L25.6629695,3.6 L15.7629695,15.4 C15.1629695,15.2 14.4629695,15 14.4629695,15 L15.1629695,-2.84217094e-14 L11.8629695,14 L7.36296948,29.8 Z" id="fur" fill="#D2943B"/>
                    <path d="M11.8629695,14 C6.96296948,11.7 1.26296948,15 0.262969484,19.5 C-0.937030516,23.8 2.06296948,29.1 7.36296948,29.8 C12.3629695,26.7 16.6629695,18.7 11.8629695,14 Z" id="nose" fill="#FFCD86"/>
                </g>
                <g id="helmet" transform="translate(71.500000, 35.408839)">
                    <path d="M29.7,34.491161 C28.2,30.391161 28.6,25.091161 30.7,20.091161 C33.7,13.191161 39.4,8.59116102 44.8,8.59116102 C45.9,8.59116102 46.9,8.79116102 47.9,9.19116102 C51,6.39116102 54.6,4.09116102 58.6,2.49116102 C80.6,-6.30883898 112.9,9.39116102 121.2,30.991161 C125.2,41.491161 124,52.891161 120.6,63.391161 C117.8,71.991161 107.6,84.391161 111.4,93.691161 C109.9,93.291161 78.6,82.691161 69.6,77.891161 C55.5,69.091161 42.9,58.291161 33.4,49.991161 L33.1,49.691161 L1.1,34.491161 C0.7,34.291161 0.3,34.091161 2.84217094e-14,33.891161 C4.4,34.091161 21.9,36.191161 29.7,34.491161" fill="#FFD524"/>
                    <g id="lamp" transform="translate(29.416300, 9.284991)" fill-rule="nonzero">
                        <ellipse id="lamp-light" fill="#FFFFFF" transform="translate(12.870740, 15.705990) rotate(-66.377840) translate(-12.870740, -15.705990) " cx="12.87074" cy="15.70599" rx="13.5998839" ry="8.09993087"/>
                        <path d="M19.1837,1.40617 C13.8837,-0.89383 6.7837,3.60617 3.2837,11.50617 C-0.2163,19.40617 1.3837,27.60617 6.6837,30.00617 C11.9837,32.30617 19.0837,27.80617 22.5837,19.90617 C26.0837,12.00617 24.4837,3.80617 19.1837,1.40617 Z M19.6837,18.70617 C16.8837,25.00617 11.5837,28.80617 7.8837,27.20617 C4.0837,25.50617 3.2837,19.10617 6.0837,12.70617 C8.8837,6.40617 14.1837,2.60617 17.9837,4.20617 C21.6837,5.90617 22.4837,12.40617 19.6837,18.70617 Z" id="lamp-ring" fill="#192E45"/>
                    </g>
                </g>
            </g>
        </g>
    </g>
<auto-scroll xmlns="http://www.w3.org/1999/xhtml"></auto-scroll></svg>